<?xml version="1.0" encoding="UTF-8"?>
<!DOCTYPE svg PUBLIC "-//W3C//DTD SVG 1.1//EN" "http://www.w3.org/Graphics/SVG/1.1/DTD/svg11.dtd">
<!-- Creator: CorelDRAW 2017 -->
<svg xmlns="http://www.w3.org/2000/svg" xml:space="preserve" width="104.25mm" height="9.872mm" version="1.1" style="shape-rendering:geometricPrecision; text-rendering:geometricPrecision; image-rendering:optimizeQuality; fill-rule:evenodd; clip-rule:evenodd"
viewBox="0 0 119782 11343"
 xmlns:xlink="http://www.w3.org/1999/xlink">
 <defs>
  <style type="text/css">
   <![CDATA[
    .fil2 {fill:#94C4F4}
    .fil0 {fill:#1D1819;fill-rule:nonzero}
    .fil1 {fill:#94C4F4;fill-rule:nonzero}
   ]]>
  </style>
 </defs>
 <g id="图层_x0020_1">
  <metadata id="CorelCorpID_0Corel-Layer"/>
  <path class="fil0" d="M11043 5094c77,743 1,1468 -202,2141 -211,702 -559,1350 -1015,1909l-1 1c-459,559 -1025,1031 -1672,1378 -618,332 -1311,551 -2053,626l-72 12c-733,64 -1448,-18 -2114,-223 -690,-212 -1326,-556 -1875,-1005 -559,-460 -1031,-1026 -1378,-1673 -332,-619 -551,-1312 -626,-2056l-11 -70c-64,-735 18,-1449 222,-2115 212,-690 556,-1326 1005,-1875 460,-559 1026,-1030 1673,-1377 621,-333 1317,-553 2064,-627 237,-25 477,-34 717,-27 242,7 484,30 722,68l2 0c246,41 486,97 717,167 228,70 451,154 667,253l221 101 -425 941c-97,216 -266,384 -467,482 -200,97 -433,126 -662,63 -54,-14 -114,-29 -180,-44 -70,-15 -131,-27 -185,-35 -155,-25 -310,-40 -465,-44 -156,-4 -313,1 -473,17 -481,49 -930,191 -1332,408 -417,224 -782,528 -1076,889 -295,362 -521,782 -658,1238 -132,438 -182,908 -133,1390 49,481 191,930 408,1332 224,417 528,782 889,1076 362,295 782,521 1238,658 438,132 908,182 1390,133 481,-49 930,-191 1332,-408 417,-224 782,-528 1076,-889 236,-290 428,-618 566,-971 134,-343 216,-710 238,-1091 13,-237 114,-449 270,-609 156,-159 369,-265 604,-288l1031 -99 25 241z"/>
  <path class="fil0" d="M13869 6876l0 4336 -2064 0 0 -11105 3384 0c757,0 1407,79 1947,235 540,156 982,373 1328,655 345,284 599,619 760,1010 161,394 240,824 240,1294 0,376 -54,729 -164,1062 -110,332 -269,634 -476,906 -207,274 -463,512 -767,716 -304,205 -652,368 -1041,491 261,148 486,361 675,637l2778 4098 -1857 0c-179,0 -330,-36 -455,-107 -125,-72 -233,-174 -320,-307l-2333 -3553c-87,-133 -182,-228 -286,-284 -105,-56 -261,-84 -466,-84l-883 0zm0 -1489l1289 0c389,0 729,-49 1018,-146 289,-97 527,-233 714,-404 187,-171 325,-373 417,-609 92,-235 138,-494 138,-775 0,-563 -184,-995 -555,-1297 -371,-302 -939,-453 -1701,-453l-1320 0 0 3684zm11164 1520l0 4313 -2065 0 0 -4313 -4044 -6784 1819 0c179,0 322,43 427,130 105,87 192,197 263,330l2034 3707c118,220 220,427 307,624 87,197 166,391 238,581 67,-194 143,-391 228,-588 84,-197 184,-402 302,-617l2018 -3707c56,-113 141,-218 253,-315 113,-97 256,-146 430,-146l1826 0 -4037 6784zm9675 -4758c-56,113 -120,192 -195,238 -74,46 -164,69 -266,69 -102,0 -218,-41 -345,-120 -128,-79 -279,-166 -453,-264 -174,-97 -376,-187 -609,-266 -233,-79 -509,-118 -826,-118 -287,0 -535,33 -747,102 -212,69 -391,166 -537,289 -146,123 -256,269 -327,440 -72,171 -108,361 -108,565 0,258 74,476 220,650 146,174 338,322 578,445 240,123 514,233 821,330 307,97 622,202 941,312 320,107 632,235 939,381 307,146 581,330 821,553 240,223 435,496 581,816 146,322 217,714 217,1174 0,502 -84,970 -256,1407 -171,437 -422,819 -752,1143 -330,325 -734,581 -1210,768 -476,187 -1021,279 -1635,279 -353,0 -701,-36 -1044,-105 -343,-69 -670,-166 -985,-294 -315,-128 -609,-281 -883,-461 -274,-179 -519,-379 -734,-599l599 -990c56,-72 125,-130 205,-179 79,-49 166,-74 263,-74 128,0 266,54 414,159 148,105 325,220 527,348 202,128 440,246 714,351 274,105 601,156 985,156 588,0 1044,-141 1366,-419 322,-279 483,-678 483,-1200 0,-292 -72,-530 -217,-714 -146,-184 -340,-340 -581,-466 -240,-125 -514,-230 -821,-317 -307,-87 -619,-182 -936,-284 -317,-102 -629,-225 -936,-368 -307,-143 -581,-330 -821,-560 -240,-230 -432,-519 -578,-865 -146,-345 -220,-770 -220,-1277 0,-404 82,-798 243,-1182 161,-384 397,-724 706,-1021 310,-297 688,-535 1138,-714 450,-179 964,-269 1543,-269 655,0 1259,102 1811,310 553,205 1023,494 1412,865l-506 975zm9491 -2041l0 1704 -3339 0 0 9401 -2064 0 0 -9401 -3354 0 0 -1704 8757 0zm8861 11112l-1596 0c-179,0 -325,-46 -440,-135 -115,-90 -200,-200 -251,-333l-829 -2264 -4597 0 -829 2264c-41,118 -120,225 -240,322 -120,97 -269,146 -443,146l-1604 0 4359 -11097 2110 0 4359 11097zm-7183 -4183l3538 0 -1351 -3691c-61,-164 -128,-358 -202,-581 -74,-223 -148,-463 -220,-724 -72,261 -141,504 -210,729 -69,225 -138,422 -205,591l-1351 3676zm9621 2479l4443 0 0 1704 -6508 0 0 -11097 2064 0 0 9393z"/>
  <path class="fil1" d="M67797 8941c82,0 156,33 223,100l583 642c-450,522 -995,931 -1637,1223 -642,292 -1417,437 -2323,437 -793,0 -1512,-138 -2156,-412 -645,-274 -1195,-658 -1650,-1151 -455,-494 -808,-1087 -1059,-1778 -251,-691 -376,-1450 -376,-2282 0,-829 136,-1589 404,-2279 269,-691 645,-1284 1131,-1783 486,-496 1069,-880 1747,-1154 678,-274 1425,-412 2244,-412 808,0 1507,125 2093,379 586,253 1105,596 1560,1031l-483 673c-36,51 -77,92 -123,125 -46,31 -113,49 -200,49 -67,0 -136,-26 -210,-74 -74,-49 -164,-107 -266,-179 -102,-72 -223,-148 -361,-230 -138,-82 -302,-159 -491,-230 -189,-72 -409,-133 -660,-182 -251,-49 -540,-72 -867,-72 -588,0 -1126,100 -1614,302 -489,202 -911,491 -1264,865 -353,374 -627,829 -824,1366 -197,537 -297,1138 -297,1803 0,686 100,1297 297,1834 197,537 466,990 806,1361 340,371 742,655 1207,849 466,194 967,292 1504,292 327,0 622,-20 883,-59 261,-38 504,-97 727,-179 223,-82 430,-187 622,-312 192,-125 384,-274 578,-448 87,-77 171,-115 253,-115zm8002 -8726l0 1213 -5280 0 0 3653 4275 0 0 1166 -4275 0 0 3760 5280 0 0 1213 -6777 0 0 -11005 6777 0zm1371 0c133,0 233,15 297,49 64,33 135,102 217,205l6370 8288c-15,-133 -26,-263 -31,-389 -5,-125 -8,-246 -8,-363l0 -7789 1305 0 0 11005 -752 0c-118,0 -215,-20 -294,-61 -79,-41 -159,-110 -235,-207l-6362 -8281c10,128 18,253 23,376 5,123 8,235 8,338l0 7836 -1305 0 0 -11005 768 0zm17249 -15l0 1259 -3553 0 0 9754 -1489 0 0 -9754 -3569 0 0 -1259 8611 0zm2123 6431l0 4597 -1481 0 0 -11013 3108 0c696,0 1297,72 1804,212 506,141 926,343 1256,609 330,266 573,588 732,964 159,379 238,798 238,1264 0,391 -61,755 -184,1092 -123,338 -299,642 -532,911 -233,269 -517,499 -852,688 -335,189 -716,333 -1141,430 184,107 348,263 491,468l3208 4374 -1320 0c-271,0 -471,-105 -599,-315l-2855 -3937c-87,-123 -182,-210 -284,-263 -102,-54 -256,-82 -460,-82l-1128 0zm0 -1090l1558 0c435,0 819,-51 1149,-156 330,-105 606,-253 829,-445 223,-192 389,-420 501,-686 113,-266 169,-560 169,-880 0,-655 -215,-1149 -647,-1479 -432,-333 -1077,-499 -1931,-499l-1627 0 0 4144zm16682 5679l-1151 0c-133,0 -240,-33 -322,-100 -82,-67 -143,-151 -184,-253l-1028 -2655 -4935 0 -1028 2655c-36,92 -97,174 -184,246 -87,72 -194,107 -322,107l-1151 0 4397 -11005 1512 0 4397 11005zm-7206 -4075l4106 0 -1727 -4479c-113,-276 -223,-622 -330,-1036 -56,210 -110,402 -164,578 -54,176 -107,333 -159,466l-1727 4472zm9007 2817l4758 0 0 1258 -6247 0 0 -11005 1489 0 0 9747z"/>
  <g id="_864251576">
   <path class="fil2" d="M7758 3689l-2897 945c-30,10 -40,47 -20,70l1437 1716c20,24 58,20 73,-7l1460 -2660c19,-35 -14,-76 -53,-63z"/>
   <path class="fil2" d="M6502 6685l751 895c24,28 70,16 77,-20l659 -3463c9,-50 -58,-74 -82,-30l-1411 2568c-9,16 -7,36 5,50z"/>
   <path class="fil2" d="M4174 6753l1833 -165c36,-3 53,-45 30,-73l-1382 -1645c-23,-28 -68,-17 -77,18l-452 1811c-7,30 17,57 47,55z"/>
   <path class="fil2" d="M4046 7050l733 869c9,11 23,17 37,16l2194 -143c36,-2 54,-45 31,-73l-774 -924c-9,-11 -23,-17 -38,-16l-2152 198c-36,3 -53,45 -30,73z"/>
   <path class="fil2" d="M3621 3754l-579 2070c-4,14 -1,29 9,40l764 906c23,28 68,17 77,-18l529 -2125c3,-14 0,-28 -9,-39l-714 -850c-23,-27 -67,-18 -76,16z"/>
   <path class="fil2" d="M7423 3457l-3474 65c-37,1 -57,44 -33,73l703 838c12,14 30,19 48,14l2770 -903c48,-16 36,-87 -14,-86z"/>
  </g>
 </g>
</svg>
